# Blender v2.80 (sub 75) OBJ File: ''
# www.blender.org
mtllib Model1.mtl
g Cube
v -0.600877 0.099123 0.600877
v -0.600877 1.300876 0.600877
v -0.600877 0.099123 -0.600877
v -0.600877 1.300876 -0.600877
v 0.600877 0.099123 0.600877
v 0.600877 1.300876 0.600877
v 0.600877 0.099123 -0.600877
v 0.600877 1.300876 -0.600877
vt 0.625000 0.000000
vt 0.375000 0.250000
vt 0.375000 0.000000
vt 0.625000 0.250000
vt 0.375000 0.500000
vt 0.625000 0.500000
vt 0.375000 0.750000
vt 0.625000 0.750000
vt 0.375000 1.000000
vt 0.125000 0.750000
vt 0.125000 0.500000
vt 0.875000 0.500000
vt 0.625000 1.000000
vt 0.875000 0.750000
vn -1.0000 0.0000 0.0000
vn 0.0000 0.0000 -1.0000
vn 1.0000 0.0000 0.0000
vn 0.0000 0.0000 1.0000
vn 0.0000 -1.0000 0.0000
vn 0.0000 1.0000 0.0000
usemtl None
s off
f 2/1/1 3/2/1 1/3/1
f 4/4/2 7/5/2 3/2/2
f 8/6/3 5/7/3 7/5/3
f 6/8/4 1/9/4 5/7/4
f 7/5/5 1/10/5 3/11/5
f 4/12/6 6/8/6 8/6/6
f 2/1/1 4/4/1 3/2/1
f 4/4/2 8/6/2 7/5/2
f 8/6/3 6/8/3 5/7/3
f 6/8/4 2/13/4 1/9/4
f 7/5/5 5/7/5 1/10/5
f 4/12/6 2/14/6 6/8/6
g Cube.001
v -1.000000 -1.900000 1.000000
v -1.000000 0.100000 1.000000
v -1.000000 -1.900000 -1.000000
v -1.000000 0.100000 -1.000000
v 1.000000 -1.900000 1.000000
v 1.000000 0.100000 1.000000
v 1.000000 -1.900000 -1.000000
v 1.000000 0.100000 -1.000000
vt 0.625000 0.000000
vt 0.375000 0.250000
vt 0.375000 0.000000
vt 0.625000 0.250000
vt 0.375000 0.500000
vt 0.625000 0.500000
vt 0.375000 0.750000
vt 0.625000 0.750000
vt 0.375000 1.000000
vt 0.125000 0.750000
vt 0.125000 0.500000
vt 0.875000 0.500000
vt 0.625000 1.000000
vt 0.875000 0.750000
vn -1.0000 0.0000 0.0000
vn 0.0000 0.0000 -1.0000
vn 1.0000 0.0000 0.0000
vn 0.0000 0.0000 1.0000
vn 0.0000 -1.0000 0.0000
vn 0.0000 1.0000 0.0000
usemtl None
s off
f 10/15/7 11/16/7 9/17/7
f 12/18/8 15/19/8 11/16/8
f 16/20/9 13/21/9 15/19/9
f 14/22/10 9/23/10 13/21/10
f 15/19/11 9/24/11 11/25/11
f 12/26/12 14/22/12 16/20/12
f 10/15/7 12/18/7 11/16/7
f 12/18/8 16/20/8 15/19/8
f 16/20/9 14/22/9 13/21/9
f 14/22/10 10/27/10 9/23/10
f 15/19/11 13/21/11 9/24/11
f 12/26/12 10/28/12 14/22/12
g Cube.002
v -0.395651 1.297976 0.395453
v -0.395651 2.089278 0.395453
v -0.395651 1.297976 -0.395849
v -0.395651 2.089278 -0.395849
v 0.395651 1.297976 0.395453
v 0.395651 2.089278 0.395453
v 0.395651 1.297976 -0.395849
v 0.395651 2.089278 -0.395849
vt 0.625000 0.000000
vt 0.375000 0.250000
vt 0.375000 0.000000
vt 0.625000 0.250000
vt 0.375000 0.500000
vt 0.625000 0.500000
vt 0.375000 0.750000
vt 0.625000 0.750000
vt 0.375000 1.000000
vt 0.125000 0.750000
vt 0.125000 0.500000
vt 0.875000 0.500000
vt 0.625000 1.000000
vt 0.875000 0.750000
vn -1.0000 0.0000 0.0000
vn 0.0000 0.0000 -1.0000
vn 1.0000 0.0000 0.0000
vn 0.0000 0.0000 1.0000
vn 0.0000 -1.0000 0.0000
vn 0.0000 1.0000 0.0000
usemtl None
s off
f 18/29/13 19/30/13 17/31/13
f 20/32/14 23/33/14 19/30/14
f 24/34/15 21/35/15 23/33/15
f 22/36/16 17/37/16 21/35/16
f 23/33/17 17/38/17 19/39/17
f 20/40/18 22/36/18 24/34/18
f 18/29/13 20/32/13 19/30/13
f 20/32/14 24/34/14 23/33/14
f 24/34/15 22/36/15 21/35/15
f 22/36/16 18/41/16 17/37/16
f 23/33/17 21/35/17 17/38/17
f 20/40/18 18/42/18 22/36/18
g Cube.003
v 0.195431 2.479483 -0.196649
v 0.195431 2.088622 -0.196649
v 0.195431 2.479483 0.194213
v 0.195431 2.088622 0.194213
v -0.195431 2.479483 -0.196649
v -0.195431 2.088622 -0.196649
v -0.195431 2.479483 0.194213
v -0.195431 2.088622 0.194213
vt 0.625000 0.000000
vt 0.375000 0.000000
vt 0.375000 0.250000
vt 0.625000 0.250000
vt 0.375000 0.500000
vt 0.625000 0.500000
vt 0.375000 0.750000
vt 0.625000 0.750000
vt 0.375000 1.000000
vt 0.125000 0.500000
vt 0.125000 0.750000
vt 0.875000 0.500000
vt 0.625000 1.000000
vt 0.875000 0.750000
vn 1.0000 0.0000 0.0000
vn 0.0000 0.0000 1.0000
vn -1.0000 0.0000 0.0000
vn 0.0000 0.0000 -1.0000
vn 0.0000 1.0000 0.0000
vn 0.0000 -1.0000 0.0000
usemtl None
s off
f 26/43/19 25/44/19 27/45/19
f 28/46/20 27/45/20 31/47/20
f 32/48/21 31/47/21 29/49/21
f 30/50/22 29/49/22 25/51/22
f 31/47/23 27/52/23 25/53/23
f 28/54/24 32/48/24 30/50/24
f 26/43/19 27/45/19 28/46/19
f 28/46/20 31/47/20 32/48/20
f 32/48/21 29/49/21 30/50/21
f 30/50/22 25/51/22 26/55/22
f 31/47/23 25/53/23 29/49/23
f 28/54/24 30/50/24 26/56/24
