# Blender v2.80 (sub 75) OBJ File: ''
# www.blender.org
mtllib Model.mtl
g Plane
v 100.000000 -0.130865 -100.000000
v -100.000000 -0.130865 -100.000000
v 100.000000 -0.130832 100.000000
v -100.000000 -0.130832 100.000000
v 100.000000 -0.481259 -100.000000
v -100.000000 -0.481259 -100.000000
v 100.000000 -0.481227 100.000000
v -100.000000 -0.481227 100.000000
vt 0.300001 8.699999
vt 8.699999 0.300001
vt 0.300001 0.300001
vt 8.699999 0.300001
vt 0.300001 8.699999
vt 0.300001 0.300001
vt 8.699999 8.699999
vt 8.699999 8.699999
vn 0.0000 -1.0000 0.0000
vn 0.0000 1.0000 -0.0000
vn 1.0000 0.0000 0.0000
vn 0.0000 0.0000 1.0000
vn 0.0000 0.0000 -1.0000
vn -1.0000 0.0000 0.0000
usemtl Material
s 1
f 2/1/1 3/2/1 4/3/1
f 7/4/2 6/5/2 8/6/2
f 4/3/3 6/5/3 2/1/3
f 2/1/4 5/7/4 1/8/4
f 3/2/5 8/6/5 4/3/5
f 1/8/6 7/4/6 3/2/6
f 2/1/1 1/8/1 3/2/1
f 7/4/2 5/7/2 6/5/2
f 4/3/3 8/6/3 6/5/3
f 2/1/4 6/5/4 5/7/4
f 3/2/5 7/4/5 8/6/5
f 1/8/6 5/7/6 7/4/6
